<svg width="20" height="20" viewBox="0 0 12 24" fill="none" xmlns="http://www.w3.org/2000/svg">
<path d="M4.74866 24V21.1333C3.61497 20.8667 2.63636 20.3556 1.81283 19.6C0.989305 18.8444 0.385027 17.7778 0 16.4L2.37433 15.4C2.69519 16.4667 3.17112 17.2778 3.80214 17.8333C4.43315 18.3889 5.26203 18.6667 6.28877 18.6667C7.16578 18.6667 7.90909 18.4611 8.51872 18.05C9.12834 17.6389 9.43315 17 9.43315 16.1333C9.43315 15.3556 9.19786 14.7389 8.72727 14.2833C8.25668 13.8278 7.16578 13.3111 5.45455 12.7333C3.61497 12.1333 2.35294 11.4167 1.66845 10.5833C0.983957 9.75 0.641711 8.73333 0.641711 7.53333C0.641711 6.08889 1.09091 4.96667 1.9893 4.16667C2.8877 3.36667 3.80749 2.91111 4.74866 2.8V0H7.31551V2.8C8.38503 2.97778 9.26738 3.38333 9.96257 4.01667C10.6578 4.65 11.1658 5.42222 11.4866 6.33333L9.1123 7.4C8.85561 6.68889 8.49198 6.15556 8.02139 5.8C7.5508 5.44444 6.90909 5.26667 6.09626 5.26667C5.15508 5.26667 4.4385 5.48333 3.94652 5.91667C3.45455 6.35 3.20856 6.88889 3.20856 7.53333C3.20856 8.26667 3.52941 8.84444 4.17112 9.26667C4.81283 9.68889 5.92513 10.1333 7.50802 10.6C8.98396 11.0444 10.1016 11.75 10.861 12.7167C11.6203 13.6833 12 14.8 12 16.0667C12 17.6444 11.5508 18.8444 10.6524 19.6667C9.75401 20.4889 8.64171 21 7.31551 21.2V24H4.74866Z" fill="black"/>
</svg>
